<svg width="68" height="23" viewBox="0 0 68 23" fill="none" xmlns="http://www.w3.org/2000/svg">
<path d="M4.209 18.207C3.54967 18.207 3.04367 18.0307 2.691 17.678C2.33833 17.3253 2.162 16.8117 2.162 16.137V9.697H1.564C1.07333 9.697 0.69 9.56667 0.414 9.306C0.153333 9.04533 0.023 8.66967 0.023 8.179C0.023 7.68833 0.153333 7.32033 0.414 7.075C0.69 6.81433 1.07333 6.684 1.564 6.684H3.335L2.162 7.765V7.121C2.162 5.43433 2.56833 4.16167 3.381 3.303C4.209 2.44433 5.43567 1.93067 7.061 1.762L7.705 1.693C8.211 1.63167 8.60967 1.693 8.901 1.877C9.20767 2.04567 9.41467 2.27567 9.522 2.567C9.62933 2.843 9.65233 3.13433 9.591 3.441C9.545 3.74767 9.43 4.00833 9.246 4.223C9.07733 4.43767 8.84733 4.56033 8.556 4.591L8.142 4.614C7.43667 4.66 6.946 4.82867 6.67 5.12C6.394 5.396 6.256 5.80233 6.256 6.339V7.098L5.75 6.684H12.259C12.9183 6.684 13.4243 6.87567 13.777 7.259C14.1297 7.627 14.306 8.17133 14.306 8.892V15.976C14.306 16.6967 14.1297 17.2487 13.777 17.632C13.4397 18.0153 12.9337 18.207 12.259 18.207C11.5997 18.207 11.0937 18.0153 10.741 17.632C10.3883 17.2487 10.212 16.6967 10.212 15.976V9.697H6.256V16.137C6.256 17.517 5.57367 18.207 4.209 18.207ZM12.351 4.844C11.6457 4.844 11.1013 4.67533 10.718 4.338C10.35 4.00067 10.166 3.51 10.166 2.866C10.166 2.23733 10.35 1.75433 10.718 1.417C11.1013 1.07967 11.6457 0.910999 12.351 0.910999C13.0563 0.910999 13.593 1.07967 13.961 1.417C14.3443 1.75433 14.536 2.23733 14.536 2.866C14.536 3.51 14.3443 4.00067 13.961 4.338C13.593 4.67533 13.0563 4.844 12.351 4.844ZM18.787 18.207C18.1124 18.207 17.591 18.0307 17.223 17.678C16.8704 17.3253 16.694 16.8117 16.694 16.137V8.524C16.694 7.86467 16.8627 7.35867 17.2 7.006C17.5527 6.65333 18.051 6.477 18.695 6.477C19.339 6.477 19.8297 6.65333 20.167 7.006C20.5044 7.35867 20.673 7.86467 20.673 8.524V9.467H20.443C20.5964 8.547 20.9874 7.81867 21.616 7.282C22.26 6.74533 23.0574 6.46167 24.008 6.431C24.4527 6.41567 24.7824 6.53067 24.997 6.776C25.227 7.006 25.3497 7.443 25.365 8.087C25.365 8.639 25.25 9.076 25.02 9.398C24.79 9.72 24.353 9.91167 23.709 9.973L23.18 10.019C22.3674 10.0957 21.777 10.3257 21.409 10.709C21.041 11.077 20.857 11.629 20.857 12.365V16.137C20.857 16.8117 20.6807 17.3253 20.328 17.678C19.9754 18.0307 19.4617 18.207 18.787 18.207ZM32.6286 18.253C31.2486 18.253 30.0526 18.0153 29.0406 17.54C28.0439 17.0493 27.2772 16.3593 26.7406 15.47C26.2039 14.5807 25.9356 13.5303 25.9356 12.319C25.9356 11.1537 26.1886 10.134 26.6946 9.26C27.2159 8.37067 27.9212 7.68067 28.8106 7.19C29.7152 6.684 30.7426 6.431 31.8926 6.431C32.7359 6.431 33.5026 6.569 34.1926 6.845C34.8826 7.10567 35.4729 7.49667 35.9636 8.018C36.4542 8.524 36.8222 9.13733 37.0676 9.858C37.3282 10.5787 37.4586 11.3837 37.4586 12.273C37.4586 12.5797 37.3742 12.8097 37.2056 12.963C37.0369 13.101 36.7686 13.17 36.4006 13.17H29.3626V11.238H34.4686L34.1006 11.537C34.1006 10.9697 34.0239 10.5097 33.8706 10.157C33.7172 9.80433 33.4872 9.536 33.1806 9.352C32.8892 9.168 32.5212 9.076 32.0766 9.076C31.6012 9.076 31.1872 9.191 30.8346 9.421C30.4972 9.63567 30.2366 9.95767 30.0526 10.387C29.8686 10.8163 29.7766 11.353 29.7766 11.997V12.204C29.7766 13.2927 30.0142 14.0747 30.4896 14.55C30.9802 15.01 31.7316 15.24 32.7436 15.24C33.0809 15.24 33.4642 15.2017 33.8936 15.125C34.3382 15.033 34.7599 14.9103 35.1586 14.757C35.5572 14.6037 35.9022 14.5807 36.1936 14.688C36.4849 14.78 36.7072 14.9487 36.8606 15.194C37.0292 15.424 37.1212 15.6923 37.1366 15.999C37.1519 16.2903 37.0829 16.5817 36.9296 16.873C36.7762 17.149 36.5232 17.3637 36.1706 17.517C35.6339 17.7623 35.0589 17.9463 34.4456 18.069C33.8476 18.1917 33.2419 18.253 32.6286 18.253Z" fill="#EA580C"/>
<path d="M42.2354 18.207C41.576 18.207 41.07 18.0307 40.7174 17.678C40.3647 17.3253 40.1884 16.8117 40.1884 16.137V9.697H39.5904C39.0997 9.697 38.7164 9.56667 38.4404 9.306C38.1797 9.04533 38.0494 8.66967 38.0494 8.179C38.0494 7.68833 38.1797 7.32033 38.4404 7.075C38.7164 6.81433 39.0997 6.684 39.5904 6.684H41.3614L40.1884 7.765V7.121C40.1884 5.419 40.61 4.14633 41.4534 3.303C42.312 2.44433 43.5847 1.93067 45.2714 1.762L45.9384 1.693C46.429 1.63167 46.82 1.693 47.1114 1.877C47.4027 2.04567 47.602 2.27567 47.7094 2.567C47.8167 2.843 47.8397 3.13433 47.7784 3.441C47.7324 3.74767 47.6174 4.00833 47.4334 4.223C47.2494 4.43767 47.004 4.56033 46.6974 4.591L46.3754 4.614C45.5934 4.67533 45.049 4.844 44.7424 5.12C44.4357 5.396 44.2824 5.80233 44.2824 6.339V7.098L43.7764 6.684H45.5934C46.0994 6.684 46.4827 6.81433 46.7434 7.075C47.004 7.32033 47.1344 7.68833 47.1344 8.179C47.1344 8.66967 47.004 9.04533 46.7434 9.306C46.4827 9.56667 46.0994 9.697 45.5934 9.697H44.2824V16.137C44.2824 17.517 43.6 18.207 42.2354 18.207ZM52.7694 18.253C51.2974 18.253 50.2087 17.862 49.5034 17.08C48.8134 16.2827 48.4684 15.0867 48.4684 13.492V3.648C48.4684 2.97333 48.6447 2.45967 48.9974 2.107C49.35 1.75433 49.8484 1.578 50.4924 1.578C51.1517 1.578 51.6577 1.75433 52.0104 2.107C52.3784 2.45967 52.5624 2.97333 52.5624 3.648V13.354C52.5624 13.9213 52.6697 14.3353 52.8844 14.596C53.1144 14.8567 53.4057 14.987 53.7584 14.987C53.8657 14.987 53.973 14.9793 54.0804 14.964C54.203 14.9333 54.3334 14.9103 54.4714 14.895C54.732 14.895 54.9237 14.9947 55.0464 15.194C55.1844 15.3933 55.2534 15.7997 55.2534 16.413C55.2534 16.9497 55.146 17.356 54.9314 17.632C54.7167 17.8927 54.387 18.0613 53.9424 18.138C53.8197 18.1533 53.6434 18.1763 53.4134 18.207C53.1834 18.2377 52.9687 18.253 52.7694 18.253ZM59.4245 22.347C58.9491 22.347 58.5658 22.2243 58.2745 21.979C57.9831 21.7337 57.7991 21.4117 57.7225 21.013C57.6611 20.6143 57.7301 20.1927 57.9295 19.748L59.4705 16.413V18.069L55.5375 9.076C55.3381 8.616 55.2691 8.18667 55.3305 7.788C55.4071 7.38933 55.6141 7.075 55.9515 6.845C56.2888 6.59967 56.7488 6.477 57.3315 6.477C57.8221 6.477 58.2131 6.592 58.5045 6.822C58.8111 7.03667 59.0871 7.466 59.3325 8.11L61.6325 14.09H60.8505L63.2885 8.087C63.5338 7.45833 63.8098 7.03667 64.1165 6.822C64.4385 6.592 64.8678 6.477 65.4045 6.477C65.8645 6.477 66.2325 6.59967 66.5085 6.845C66.7845 7.075 66.9531 7.38933 67.0145 7.788C67.0758 8.18667 67.0068 8.616 66.8075 9.076L61.5865 20.806C61.3105 21.4193 61.0038 21.8257 60.6665 22.025C60.3445 22.2397 59.9305 22.347 59.4245 22.347Z" fill="#052E16"/>
</svg>
